<svg width="53" height="53" viewBox="0 0 53 53" fill="none" xmlns="http://www.w3.org/2000/svg">
<path d="M52.8866 10.5922V0H0V10.6526C0.186323 10.6187 0.375214 10.6009 0.564588 10.5993C1.02927 10.5845 1.49221 10.6631 1.92588 10.8307C2.35956 10.9983 2.75513 11.2513 3.0891 11.5747C3.42307 11.8982 3.68861 12.2855 3.86996 12.7136C4.05131 13.1417 4.14476 13.6018 4.14476 14.0668C4.14476 14.5317 4.05131 14.9919 3.86996 15.42C3.68861 15.8481 3.42307 16.2353 3.0891 16.5588C2.75513 16.8822 2.35956 17.1353 1.92588 17.3028C1.49221 17.4704 1.02927 17.5491 0.564588 17.5342C0.375316 17.5338 0.186426 17.5172 0 17.4845V34.7417C0.186652 34.7107 0.375399 34.6941 0.564588 34.692C1.02927 34.6771 1.49221 34.7558 1.92588 34.9233C2.35956 35.0909 2.75513 35.3439 3.0891 35.6674C3.42307 35.9908 3.68861 36.3781 3.86996 36.8062C4.05131 37.2343 4.14476 37.6945 4.14476 38.1594C4.14476 38.6243 4.05131 39.0845 3.86996 39.5126C3.68861 39.9407 3.42307 40.328 3.0891 40.6514C2.75513 40.9749 2.35956 41.2279 1.92588 41.3954C1.49221 41.563 1.02927 41.6417 0.564588 41.6268C0.375316 41.6264 0.186426 41.6098 0 41.5771V52.9079H52.8866V17.5271C51.9862 17.4983 51.1323 17.1203 50.5056 16.4732C49.8788 15.8261 49.5284 14.9605 49.5284 14.0597C49.5284 13.1588 49.8788 12.2932 50.5056 11.6461C51.1323 10.999 51.9862 10.6211 52.8866 10.5922ZM47.1839 44.0627C47.183 44.8902 46.8538 45.6836 46.2687 46.2687C45.6836 46.8538 44.8902 47.183 44.0627 47.1839H8.82746C7.99933 47.1839 7.20507 46.8552 6.61917 46.27C6.03326 45.6847 5.70363 44.8908 5.70269 44.0627V8.82746C5.70269 7.99872 6.03191 7.20392 6.61791 6.61791C7.20392 6.03191 7.99872 5.70269 8.82746 5.70269H44.0627C44.8908 5.70363 45.6847 6.03326 46.27 6.61917C46.8552 7.20507 47.1839 7.99933 47.1839 8.82746V44.0627ZM50.8733 49.2115C50.8733 49.5626 50.7691 49.9059 50.5741 50.1978C50.379 50.4898 50.1017 50.7174 49.7773 50.8518C49.4529 50.9861 49.0959 51.0213 48.7515 50.9528C48.4071 50.8843 48.0907 50.7152 47.8424 50.4669C47.5941 50.2186 47.425 49.9022 47.3565 49.5578C47.288 49.2134 47.3232 48.8565 47.4576 48.532C47.5919 48.2076 47.8195 47.9303 48.1115 47.7352C48.4034 47.5402 48.7467 47.436 49.0978 47.436C49.5687 47.436 50.0203 47.6231 50.3533 47.956C50.6862 48.289 50.8733 48.7406 50.8733 49.2115Z" fill="white"/>
<path d="M20.4702 38.2038C21.2621 38.6121 23.666 39.8514 26.2865 39.9792C28.7251 40.0749 31.1386 39.458 33.232 38.2038C35.3261 37.0486 37.1322 35.4354 38.5157 33.4847V36.7763C37.0983 38.3751 35.3533 39.65 33.3994 40.5145C31.4455 41.379 29.3285 41.8129 27.192 41.7866H26.6097C24.9979 41.7956 23.3959 41.5364 21.8693 41.0196C20.8773 40.6376 19.9138 40.1855 18.986 39.6667L20.4702 38.2038Z" fill="white"/>
<path d="M29.848 31.1837C29.848 31.1837 27.6643 30.051 26.9825 29.735C26.3007 29.4189 25.9847 29.8202 25.9847 29.8202L14.9095 40.7462C14.7985 40.8652 14.7367 41.0219 14.7367 41.1847C14.7367 41.3475 14.7985 41.5042 14.9095 41.6233C15.3179 42.0316 15.847 41.5309 15.847 41.5309L26.528 31.0062C26.5637 30.9822 26.6057 30.9694 26.6487 30.9694C26.6917 30.9694 26.7337 30.9822 26.7694 31.0062C26.9079 31.0843 31.8365 33.4918 31.8365 33.4918C31.9623 33.569 32.11 33.6028 32.2569 33.5881C32.4038 33.5733 32.5417 33.5108 32.6497 33.4101C32.7503 33.3079 32.8129 33.1743 32.8271 33.0315C32.8413 32.8888 32.8063 32.7454 32.7278 32.6254L26.2262 24.8312L29.6954 27.1428C29.8018 27.2089 29.9252 27.2422 30.0504 27.2387C30.1766 27.2515 30.303 27.2174 30.4055 27.1428L32.5929 25.0656C32.6554 24.9583 32.6828 24.8341 32.671 24.7105C32.6755 24.5847 32.6407 24.4606 32.5716 24.3554L31.4353 22.6652L35.4584 25.6408C35.5758 25.7551 35.7331 25.8191 35.8969 25.8191C36.0608 25.8191 36.2181 25.7551 36.3355 25.6408C36.3937 25.5934 36.4418 25.5349 36.4772 25.4687C36.5125 25.4025 36.5343 25.3299 36.5412 25.2552C36.5481 25.1805 36.5401 25.1051 36.5176 25.0336C36.4951 24.962 36.4585 24.8956 36.41 24.8383L35.4691 22.4202C35.4426 22.3869 35.4281 22.3456 35.4281 22.303C35.4281 22.2604 35.4426 22.2191 35.4691 22.1858C35.5685 22.0686 42.5388 15.1196 42.5388 15.1196C42.628 15.001 42.6697 14.8534 42.656 14.7057C42.6422 14.558 42.5738 14.4207 42.4643 14.3206C42.3668 14.2098 42.2312 14.1398 42.0844 14.1247C41.9376 14.1095 41.7904 14.1504 41.6724 14.239L34.2156 21.6958C34.1126 21.8031 34.0531 21.9448 34.0487 22.0935C34.1203 22.5174 34.22 22.9362 34.347 23.3469L30.3274 20.595C30.2076 20.5072 30.0592 20.4672 29.9114 20.483C29.7637 20.4987 29.6271 20.5691 29.5285 20.6802C29.4207 20.8002 29.361 20.9557 29.361 21.117C29.361 21.2783 29.4207 21.4338 29.5285 21.5538L31.1903 24.4619C31.2077 24.4839 31.2206 24.5092 31.228 24.5362C31.2355 24.5632 31.2375 24.5915 31.2339 24.6193C31.2302 24.6471 31.221 24.6739 31.2068 24.6981C31.1926 24.7223 31.1737 24.7434 31.1512 24.7602C30.9914 24.9129 30.086 25.7331 30.086 25.7331C30.0532 25.7609 30.0117 25.7761 29.9688 25.7761C29.9259 25.7761 29.8843 25.7609 29.8516 25.7331C29.7131 25.6266 23.3393 21.3052 23.3393 21.3052C23.3393 21.3052 22.796 20.8152 22.3486 21.2626C21.9012 21.71 22.4622 22.2675 22.4622 22.2675L29.8658 31.1091C29.8658 31.1091 29.9333 31.205 29.848 31.1837Z" fill="white"/>
<path d="M26.3789 12.911C33.0829 12.911 34.5743 15.5528 35.5188 16.3979L31.7016 20.1902L33.3528 21.3407L38.3595 16.3979C35.1708 12.8684 31.3608 11.1036 26.9293 11.1036C22.4978 11.1036 18.7777 12.5997 15.7689 15.5919C12.7483 18.5864 11.238 22.1278 11.238 26.2161C11.2295 27.8179 11.4813 29.4105 11.9837 30.9316C12.7673 33.2117 14.0704 35.2783 15.7902 36.9681C16.1808 37.3693 16.543 37.6783 16.6886 37.8239L18.0805 36.4035L26.2156 28.407L26.3682 28.2543L25.1112 26.7522L24.9657 26.8978L16.7241 35.0648C14.4852 32.5902 13.2638 29.3612 13.3046 26.0243C13.3046 22.58 14.6279 19.5345 17.2745 16.8879C19.9211 14.2414 22.9559 12.9157 26.3789 12.911Z" fill="white"/>
<path d="M29.2164 22.6545L28.1973 23.6665L29.8449 24.8064L30.271 24.3838L29.2164 22.6545Z" fill="white"/>
</svg>
